<svg xmlns="http://www.w3.org/2000/svg" width="60" height="60" viewBox="0 0 60 60"><defs><style>.a{fill:#dfdfe1;}</style></defs><path class="a" d="M54.375,0H5.625A5.625,5.625,0,0,0,0,5.625v48.75A5.625,5.625,0,0,0,5.625,60h48.75A5.625,5.625,0,0,0,60,54.375V5.625A5.625,5.625,0,0,0,54.375,0ZM56.25,54.375a1.875,1.875,0,0,1-1.875,1.875H5.625A1.875,1.875,0,0,1,3.75,54.375V5.625A1.875,1.875,0,0,1,5.625,3.75h48.75A1.875,1.875,0,0,1,56.25,5.625Z"/><path class="a" d="M111.53,244.424a1.875,1.875,0,0,0-2.644,0l-4.312,4.313-8.044-8.044a1.875,1.875,0,0,0-2.644,0L80.761,253.817A1.875,1.875,0,0,0,82.073,257h37.5A1.875,1.875,0,0,0,120.9,253.8Z" transform="translate(-70.823 -212.005)"/><circle class="a" cx="5.625" cy="5.625" r="5.625" transform="translate(30 15)"/></svg>